<mxfile host="app.diagrams.net" modified="2024-04-22T22:57:22.501Z" agent="Mozilla/5.0 (Windows NT 10.0; Win64; x64) AppleWebKit/537.36 (KHTML, like Gecko) Chrome/124.0.0.0 Safari/537.36" etag="0pE1mX63AF3ua0Q2wp3X" version="24.2.8" type="device">
  <diagram name="Page-1" id="2cc2dc42-3aac-f2a9-1cec-7a8b7cbee084">
    <mxGraphModel dx="4330" dy="2540" grid="1" gridSize="10" guides="1" tooltips="1" connect="1" arrows="1" fold="1" page="1" pageScale="1" pageWidth="1100" pageHeight="850" background="none" math="0" shadow="0">
      <root>
        <mxCell id="0" />
        <mxCell id="1" parent="0" />
        <mxCell id="sd6GI_CfqPa9usXOeFd3-30" value="" style="strokeWidth=1;shadow=0;dashed=0;align=center;html=1;shape=mxgraph.mockup.containers.browserWindow;rSize=0;strokeColor=#666666;mainText=,;recursiveResize=0;rounded=0;labelBackgroundColor=none;fontFamily=Verdana;fontSize=12;container=0;" vertex="1" parent="1">
          <mxGeometry x="1380" y="20" width="1270" height="820" as="geometry" />
        </mxCell>
        <mxCell id="sd6GI_CfqPa9usXOeFd3-137" value="" style="rounded=0;whiteSpace=wrap;html=1;" vertex="1" parent="1">
          <mxGeometry x="1380" y="190" width="1270" height="650" as="geometry" />
        </mxCell>
        <mxCell id="sd6GI_CfqPa9usXOeFd3-136" value="" style="rounded=0;whiteSpace=wrap;html=1;" vertex="1" parent="1">
          <mxGeometry x="30" y="190" width="1270" height="650" as="geometry" />
        </mxCell>
        <mxCell id="7026571954dc6520-1" value="" style="strokeWidth=1;shadow=0;dashed=0;align=center;html=1;shape=mxgraph.mockup.containers.browserWindow;rSize=0;strokeColor=#666666;mainText=,;recursiveResize=0;rounded=0;labelBackgroundColor=none;fontFamily=Verdana;fontSize=12;container=0;" parent="1" vertex="1">
          <mxGeometry x="30" y="20" width="1270" height="820" as="geometry" />
        </mxCell>
        <mxCell id="7026571954dc6520-2" value="Portifólio" style="strokeWidth=1;shadow=0;dashed=0;align=center;html=1;shape=mxgraph.mockup.containers.anchor;fontSize=17;fontColor=#666666;align=left;" parent="1" vertex="1">
          <mxGeometry x="90" y="32" width="110" height="26" as="geometry" />
        </mxCell>
        <mxCell id="7026571954dc6520-3" value="https://www.default.com" style="strokeWidth=1;shadow=0;dashed=0;align=center;html=1;shape=mxgraph.mockup.containers.anchor;rSize=0;fontSize=17;fontColor=#666666;align=left;" parent="1" vertex="1">
          <mxGeometry x="160" y="80" width="250" height="26" as="geometry" />
        </mxCell>
        <mxCell id="7026571954dc6520-15" value="" style="verticalLabelPosition=bottom;shadow=0;dashed=0;align=center;html=1;verticalAlign=top;strokeWidth=1;shape=mxgraph.mockup.markup.line;strokeColor=#999999;rounded=0;labelBackgroundColor=none;fillColor=#ffffff;fontFamily=Verdana;fontSize=12;fontColor=#000000;" parent="1" vertex="1">
          <mxGeometry x="90" y="346.28" width="560" height="17.43" as="geometry" />
        </mxCell>
        <mxCell id="7026571954dc6520-22" value="" style="verticalLabelPosition=bottom;shadow=0;dashed=0;align=center;html=1;verticalAlign=top;strokeWidth=1;shape=mxgraph.mockup.graphics.simpleIcon;strokeColor=#999999;fillColor=#ffffff;rounded=0;labelBackgroundColor=none;fontFamily=Verdana;fontSize=12;fontColor=#000000;" parent="1" vertex="1">
          <mxGeometry x="720" y="265" width="500" height="500" as="geometry" />
        </mxCell>
        <mxCell id="sd6GI_CfqPa9usXOeFd3-5" value="" style="rounded=0;whiteSpace=wrap;html=1;fontColor=none;labelBackgroundColor=none;noLabel=1;strokeColor=default;fillColor=default;fillStyle=auto;" vertex="1" parent="1">
          <mxGeometry x="30" y="130" width="1270" height="60" as="geometry" />
        </mxCell>
        <mxCell id="sd6GI_CfqPa9usXOeFd3-6" value="Portifólio" style="text;html=1;align=left;verticalAlign=middle;whiteSpace=wrap;rounded=0;fontStyle=1;fontFamily=Poppins;fontSize=23;fontSource=https%3A%2F%2Ffonts.googleapis.com%2Fcss%3Ffamily%3DPoppins;" vertex="1" parent="1">
          <mxGeometry x="94" y="144.99999999999997" width="106" height="30" as="geometry" />
        </mxCell>
        <mxCell id="sd6GI_CfqPa9usXOeFd3-15" value="" style="group;fontFamily=Poppins;fontSource=https%3A%2F%2Ffonts.googleapis.com%2Fcss%3Ffamily%3DPoppins;" vertex="1" connectable="0" parent="1">
          <mxGeometry x="670" y="130" width="630" height="60" as="geometry" />
        </mxCell>
        <mxCell id="sd6GI_CfqPa9usXOeFd3-8" value="Home" style="rounded=0;whiteSpace=wrap;html=1;strokeColor=#000000;fillColor=none;fontStyle=1;fontSize=14;fontColor=#77E319;fontFamily=Poppins;fontSource=https%3A%2F%2Ffonts.googleapis.com%2Fcss%3Ffamily%3DPoppins;" vertex="1" parent="sd6GI_CfqPa9usXOeFd3-15">
          <mxGeometry width="112" height="60" as="geometry" />
        </mxCell>
        <mxCell id="sd6GI_CfqPa9usXOeFd3-9" value="Sobre Mim" style="rounded=0;whiteSpace=wrap;html=1;strokeColor=#000000;fillColor=none;fontStyle=1;fontSize=14;fontFamily=Poppins;fontSource=https%3A%2F%2Ffonts.googleapis.com%2Fcss%3Ffamily%3DPoppins;" vertex="1" parent="sd6GI_CfqPa9usXOeFd3-15">
          <mxGeometry x="112" width="112" height="60" as="geometry" />
        </mxCell>
        <mxCell id="sd6GI_CfqPa9usXOeFd3-10" value="Experiências" style="rounded=0;whiteSpace=wrap;html=1;strokeColor=#000000;fillColor=none;fontStyle=1;fontSize=14;fontFamily=Poppins;fontSource=https%3A%2F%2Ffonts.googleapis.com%2Fcss%3Ffamily%3DPoppins;" vertex="1" parent="sd6GI_CfqPa9usXOeFd3-15">
          <mxGeometry x="224" width="112" height="60" as="geometry" />
        </mxCell>
        <mxCell id="sd6GI_CfqPa9usXOeFd3-11" value="Habilidades" style="rounded=0;whiteSpace=wrap;html=1;strokeColor=#000000;fillColor=none;fontStyle=1;fontSize=14;fontFamily=Poppins;fontSource=https%3A%2F%2Ffonts.googleapis.com%2Fcss%3Ffamily%3DPoppins;" vertex="1" parent="sd6GI_CfqPa9usXOeFd3-15">
          <mxGeometry x="336" width="112" height="60" as="geometry" />
        </mxCell>
        <mxCell id="sd6GI_CfqPa9usXOeFd3-12" value="Contato" style="rounded=0;whiteSpace=wrap;html=1;strokeColor=#000000;fillColor=none;fontStyle=1;fontSize=14;fontFamily=Poppins;fontSource=https%3A%2F%2Ffonts.googleapis.com%2Fcss%3Ffamily%3DPoppins;" vertex="1" parent="sd6GI_CfqPa9usXOeFd3-15">
          <mxGeometry x="448" width="112" height="60" as="geometry" />
        </mxCell>
        <mxCell id="sd6GI_CfqPa9usXOeFd3-16" value="Olá, sou o Victor Santos" style="text;html=1;align=left;verticalAlign=middle;rounded=0;fontColor=#77E319;fontStyle=1;fontSize=47;fontFamily=Poppins;fontSource=https%3A%2F%2Ffonts.googleapis.com%2Fcss%3Ffamily%3DPoppins;labelPosition=center;verticalLabelPosition=middle;" vertex="1" parent="1">
          <mxGeometry x="90" y="373" width="566" height="60" as="geometry" />
        </mxCell>
        <mxCell id="sd6GI_CfqPa9usXOeFd3-19" value="&lt;h1 style=&quot;margin-top: 0px; font-size: 27px; line-height: 216%;&quot;&gt;&lt;font style=&quot;font-size: 27px;&quot;&gt;Desenvolvedor Júnior&lt;/font&gt;&lt;/h1&gt;&lt;p style=&quot;text-align: justify; line-height: 120%;&quot;&gt;&lt;font style=&quot;font-size: 15px;&quot;&gt;Estou atualmente cursando a faculdade de ciência da computação. Tenho interesses na área de Inteligência Artificial e também estou em busca da minha primeira experiência de Trabalho na área de TI.&lt;/font&gt;&lt;/p&gt;" style="text;html=1;whiteSpace=wrap;overflow=hidden;rounded=0;fontFamily=Poppins;fontSource=https%3A%2F%2Ffonts.googleapis.com%2Fcss%3Ffamily%3DPoppins;spacing=2;fontColor=#000000;" vertex="1" parent="1">
          <mxGeometry x="90" y="423" width="546" height="151" as="geometry" />
        </mxCell>
        <mxCell id="sd6GI_CfqPa9usXOeFd3-20" value="GH" style="ellipse;whiteSpace=wrap;html=1;fillColor=none;strokeWidth=4;fontColor=#77E319;strokeColor=#77E319;" vertex="1" parent="1">
          <mxGeometry x="90" y="725" width="40" height="40" as="geometry" />
        </mxCell>
        <mxCell id="sd6GI_CfqPa9usXOeFd3-21" value="I" style="ellipse;whiteSpace=wrap;html=1;fillColor=none;strokeWidth=4;fontColor=#77E319;strokeColor=#77E319;" vertex="1" parent="1">
          <mxGeometry x="143" y="725" width="40" height="40" as="geometry" />
        </mxCell>
        <mxCell id="sd6GI_CfqPa9usXOeFd3-22" value="Ln" style="ellipse;whiteSpace=wrap;html=1;fillColor=none;strokeWidth=4;fontColor=#77E319;strokeColor=#77E319;" vertex="1" parent="1">
          <mxGeometry x="196" y="725" width="40" height="40" as="geometry" />
        </mxCell>
        <mxCell id="sd6GI_CfqPa9usXOeFd3-24" value="Sobre Mim" style="rounded=1;whiteSpace=wrap;html=1;fillColor=#77E319;strokeColor=none;fontStyle=1;fontFamily=Poppins;fontSource=https%3A%2F%2Ffonts.googleapis.com%2Fcss%3Ffamily%3DPoppins;fontSize=16;" vertex="1" parent="1">
          <mxGeometry x="90" y="590" width="146" height="50" as="geometry" />
        </mxCell>
        <mxCell id="sd6GI_CfqPa9usXOeFd3-25" value="&lt;span style=&quot;font-size: 16px;&quot;&gt;Contato&lt;/span&gt;" style="rounded=1;whiteSpace=wrap;html=1;fillColor=none;strokeWidth=3;perimeterSpacing=0;shadow=0;glass=0;fontSize=16;fontStyle=1;fontFamily=Poppins;fontSource=https%3A%2F%2Ffonts.googleapis.com%2Fcss%3Ffamily%3DPoppins;fontColor=#77E319;strokeColor=#77E319;" vertex="1" parent="1">
          <mxGeometry x="250" y="592" width="146" height="47" as="geometry" />
        </mxCell>
        <mxCell id="sd6GI_CfqPa9usXOeFd3-32" value="Portifólio" style="strokeWidth=1;shadow=0;dashed=0;align=center;html=1;shape=mxgraph.mockup.containers.anchor;fontSize=17;fontColor=#666666;align=left;" vertex="1" parent="1">
          <mxGeometry x="1440" y="32" width="110" height="26" as="geometry" />
        </mxCell>
        <mxCell id="sd6GI_CfqPa9usXOeFd3-33" value="https://www.default.com" style="strokeWidth=1;shadow=0;dashed=0;align=center;html=1;shape=mxgraph.mockup.containers.anchor;rSize=0;fontSize=17;fontColor=#666666;align=left;" vertex="1" parent="1">
          <mxGeometry x="1510" y="80" width="250" height="26" as="geometry" />
        </mxCell>
        <mxCell id="sd6GI_CfqPa9usXOeFd3-37" value="" style="rounded=0;whiteSpace=wrap;html=1;opacity=50;" vertex="1" parent="1">
          <mxGeometry x="1380" y="130" width="1270" height="60" as="geometry" />
        </mxCell>
        <mxCell id="sd6GI_CfqPa9usXOeFd3-38" value="Portifólio" style="text;html=1;align=left;verticalAlign=middle;whiteSpace=wrap;rounded=0;fontStyle=1;fontFamily=Poppins;fontSize=23;fontSource=https%3A%2F%2Ffonts.googleapis.com%2Fcss%3Ffamily%3DPoppins;" vertex="1" parent="1">
          <mxGeometry x="1494" y="145" width="106" height="30" as="geometry" />
        </mxCell>
        <mxCell id="sd6GI_CfqPa9usXOeFd3-39" value="" style="group;fontFamily=Poppins;fontSource=https%3A%2F%2Ffonts.googleapis.com%2Fcss%3Ffamily%3DPoppins;" vertex="1" connectable="0" parent="1">
          <mxGeometry x="2050" y="130" width="560" height="60" as="geometry" />
        </mxCell>
        <mxCell id="sd6GI_CfqPa9usXOeFd3-40" value="&lt;font color=&quot;#000000&quot;&gt;Home&lt;/font&gt;" style="rounded=0;whiteSpace=wrap;html=1;strokeColor=#000000;fillColor=none;fontStyle=1;fontSize=14;fontColor=#77E319;fontFamily=Poppins;fontSource=https%3A%2F%2Ffonts.googleapis.com%2Fcss%3Ffamily%3DPoppins;" vertex="1" parent="sd6GI_CfqPa9usXOeFd3-39">
          <mxGeometry width="112" height="60" as="geometry" />
        </mxCell>
        <mxCell id="sd6GI_CfqPa9usXOeFd3-41" value="&lt;font color=&quot;#00ff11&quot;&gt;Sobre Mim&lt;/font&gt;" style="rounded=0;whiteSpace=wrap;html=1;strokeColor=#000000;fillColor=none;fontStyle=1;fontSize=14;fontFamily=Poppins;fontSource=https%3A%2F%2Ffonts.googleapis.com%2Fcss%3Ffamily%3DPoppins;" vertex="1" parent="sd6GI_CfqPa9usXOeFd3-39">
          <mxGeometry x="112" width="112" height="60" as="geometry" />
        </mxCell>
        <mxCell id="sd6GI_CfqPa9usXOeFd3-42" value="Experiências" style="rounded=0;whiteSpace=wrap;html=1;strokeColor=#000000;fillColor=none;fontStyle=1;fontSize=14;fontFamily=Poppins;fontSource=https%3A%2F%2Ffonts.googleapis.com%2Fcss%3Ffamily%3DPoppins;" vertex="1" parent="sd6GI_CfqPa9usXOeFd3-39">
          <mxGeometry x="224" width="112" height="60" as="geometry" />
        </mxCell>
        <mxCell id="sd6GI_CfqPa9usXOeFd3-43" value="Habilidades" style="rounded=0;whiteSpace=wrap;html=1;strokeColor=#000000;fillColor=none;fontStyle=1;fontSize=14;fontFamily=Poppins;fontSource=https%3A%2F%2Ffonts.googleapis.com%2Fcss%3Ffamily%3DPoppins;" vertex="1" parent="sd6GI_CfqPa9usXOeFd3-39">
          <mxGeometry x="336" width="112" height="60" as="geometry" />
        </mxCell>
        <mxCell id="sd6GI_CfqPa9usXOeFd3-44" value="Contato" style="rounded=0;whiteSpace=wrap;html=1;strokeColor=#000000;fillColor=none;fontStyle=1;fontSize=14;fontFamily=Poppins;fontSource=https%3A%2F%2Ffonts.googleapis.com%2Fcss%3Ffamily%3DPoppins;" vertex="1" parent="sd6GI_CfqPa9usXOeFd3-39">
          <mxGeometry x="448" width="112" height="60" as="geometry" />
        </mxCell>
        <mxCell id="sd6GI_CfqPa9usXOeFd3-52" value="" style="verticalLabelPosition=bottom;shadow=0;dashed=0;align=center;html=1;verticalAlign=top;strokeWidth=1;shape=mxgraph.mockup.markup.line;strokeColor=#999999;rounded=0;labelBackgroundColor=none;fillColor=#ffffff;fontFamily=Verdana;fontSize=12;fontColor=#000000;" vertex="1" parent="1">
          <mxGeometry x="94" y="666.28" width="560" height="17.43" as="geometry" />
        </mxCell>
        <mxCell id="sd6GI_CfqPa9usXOeFd3-105" value="" style="strokeWidth=1;shadow=0;dashed=0;align=center;html=1;shape=mxgraph.mockup.containers.browserWindow;rSize=0;strokeColor=#666666;mainText=,;recursiveResize=0;rounded=0;labelBackgroundColor=none;fontFamily=Verdana;fontSize=12;container=0;" vertex="1" parent="1">
          <mxGeometry x="30" y="880" width="1270" height="820" as="geometry" />
        </mxCell>
        <mxCell id="sd6GI_CfqPa9usXOeFd3-106" value="Portifólio" style="strokeWidth=1;shadow=0;dashed=0;align=center;html=1;shape=mxgraph.mockup.containers.anchor;fontSize=17;fontColor=#666666;align=left;" vertex="1" parent="1">
          <mxGeometry x="90" y="892" width="110" height="26" as="geometry" />
        </mxCell>
        <mxCell id="sd6GI_CfqPa9usXOeFd3-107" value="https://www.default.com" style="strokeWidth=1;shadow=0;dashed=0;align=center;html=1;shape=mxgraph.mockup.containers.anchor;rSize=0;fontSize=17;fontColor=#666666;align=left;" vertex="1" parent="1">
          <mxGeometry x="160" y="940" width="250" height="26" as="geometry" />
        </mxCell>
        <mxCell id="sd6GI_CfqPa9usXOeFd3-108" value="" style="rounded=0;whiteSpace=wrap;html=1;opacity=50;" vertex="1" parent="1">
          <mxGeometry x="30" y="990" width="1270" height="60" as="geometry" />
        </mxCell>
        <mxCell id="sd6GI_CfqPa9usXOeFd3-109" value="Portifólio" style="text;html=1;align=left;verticalAlign=middle;whiteSpace=wrap;rounded=0;fontStyle=1;fontFamily=Poppins;fontSize=23;fontSource=https%3A%2F%2Ffonts.googleapis.com%2Fcss%3Ffamily%3DPoppins;" vertex="1" parent="1">
          <mxGeometry x="144" y="1005" width="106" height="30" as="geometry" />
        </mxCell>
        <mxCell id="sd6GI_CfqPa9usXOeFd3-110" value="" style="group;fontFamily=Poppins;fontSource=https%3A%2F%2Ffonts.googleapis.com%2Fcss%3Ffamily%3DPoppins;" vertex="1" connectable="0" parent="1">
          <mxGeometry x="700" y="990" width="560" height="60" as="geometry" />
        </mxCell>
        <mxCell id="sd6GI_CfqPa9usXOeFd3-111" value="&lt;font color=&quot;#000000&quot;&gt;Home&lt;/font&gt;" style="rounded=0;whiteSpace=wrap;html=1;strokeColor=#000000;fillColor=none;fontStyle=1;fontSize=14;fontColor=#77E319;fontFamily=Poppins;fontSource=https%3A%2F%2Ffonts.googleapis.com%2Fcss%3Ffamily%3DPoppins;" vertex="1" parent="sd6GI_CfqPa9usXOeFd3-110">
          <mxGeometry width="112" height="60" as="geometry" />
        </mxCell>
        <mxCell id="sd6GI_CfqPa9usXOeFd3-112" value="Sobre Mim" style="rounded=0;whiteSpace=wrap;html=1;strokeColor=#000000;fillColor=none;fontStyle=1;fontSize=14;fontFamily=Poppins;fontSource=https%3A%2F%2Ffonts.googleapis.com%2Fcss%3Ffamily%3DPoppins;" vertex="1" parent="sd6GI_CfqPa9usXOeFd3-110">
          <mxGeometry x="112" width="112" height="60" as="geometry" />
        </mxCell>
        <mxCell id="sd6GI_CfqPa9usXOeFd3-113" value="&lt;font color=&quot;#00ff11&quot;&gt;Experiências&lt;/font&gt;" style="rounded=0;whiteSpace=wrap;html=1;strokeColor=#000000;fillColor=none;fontStyle=1;fontSize=14;fontFamily=Poppins;fontSource=https%3A%2F%2Ffonts.googleapis.com%2Fcss%3Ffamily%3DPoppins;" vertex="1" parent="sd6GI_CfqPa9usXOeFd3-110">
          <mxGeometry x="224" width="112" height="60" as="geometry" />
        </mxCell>
        <mxCell id="sd6GI_CfqPa9usXOeFd3-114" value="Habilidades" style="rounded=0;whiteSpace=wrap;html=1;strokeColor=#000000;fillColor=none;fontStyle=1;fontSize=14;fontFamily=Poppins;fontSource=https%3A%2F%2Ffonts.googleapis.com%2Fcss%3Ffamily%3DPoppins;" vertex="1" parent="sd6GI_CfqPa9usXOeFd3-110">
          <mxGeometry x="336" width="112" height="60" as="geometry" />
        </mxCell>
        <mxCell id="sd6GI_CfqPa9usXOeFd3-115" value="Contato" style="rounded=0;whiteSpace=wrap;html=1;strokeColor=#000000;fillColor=none;fontStyle=1;fontSize=14;fontFamily=Poppins;fontSource=https%3A%2F%2Ffonts.googleapis.com%2Fcss%3Ffamily%3DPoppins;" vertex="1" parent="sd6GI_CfqPa9usXOeFd3-110">
          <mxGeometry x="448" width="112" height="60" as="geometry" />
        </mxCell>
        <mxCell id="sd6GI_CfqPa9usXOeFd3-116" value="&lt;font face=&quot;Poppins&quot;&gt;&lt;b&gt;Experiências &lt;font color=&quot;#000000&quot;&gt;Anteriores&lt;/font&gt;&lt;/b&gt;&lt;/font&gt;" style="text;html=1;align=center;verticalAlign=middle;whiteSpace=wrap;rounded=0;fontColor=#00FF11;fontSize=46;" vertex="1" parent="1">
          <mxGeometry x="390" y="1140" width="550" height="40" as="geometry" />
        </mxCell>
        <mxCell id="sd6GI_CfqPa9usXOeFd3-119" value="" style="swimlane;startSize=0;" vertex="1" parent="1">
          <mxGeometry x="30" y="1050" width="1270" height="650" as="geometry" />
        </mxCell>
        <mxCell id="sd6GI_CfqPa9usXOeFd3-118" value="&lt;h1 style=&quot;margin-top: 0px;&quot;&gt;Ainda em busca da primeira experiência...&lt;/h1&gt;" style="text;html=1;whiteSpace=wrap;overflow=hidden;rounded=0;align=center;fontColor=default;" vertex="1" parent="sd6GI_CfqPa9usXOeFd3-119">
          <mxGeometry x="230" y="170" width="810" height="45" as="geometry" />
        </mxCell>
        <mxCell id="sd6GI_CfqPa9usXOeFd3-138" value="" style="group" vertex="1" connectable="0" parent="1">
          <mxGeometry x="1610" y="278.11" width="810" height="473.78" as="geometry" />
        </mxCell>
        <mxCell id="sd6GI_CfqPa9usXOeFd3-101" value="&lt;b style=&quot;font-size: 46px;&quot;&gt;&lt;font face=&quot;Poppins&quot; data-font-src=&quot;https://fonts.googleapis.com/css?family=Poppins&quot; style=&quot;font-size: 46px;&quot;&gt;Sobre &lt;font color=&quot;#000000&quot;&gt;Mim&lt;/font&gt;&lt;/font&gt;&lt;/b&gt;" style="text;html=1;align=center;verticalAlign=middle;whiteSpace=wrap;rounded=0;fontColor=#00FF11;fontSize=46;" vertex="1" parent="sd6GI_CfqPa9usXOeFd3-138">
          <mxGeometry x="280" width="250" height="40" as="geometry" />
        </mxCell>
        <mxCell id="sd6GI_CfqPa9usXOeFd3-102" value="" style="verticalLabelPosition=bottom;shadow=0;dashed=0;align=center;html=1;verticalAlign=top;strokeWidth=1;shape=mxgraph.mockup.graphics.simpleIcon;strokeColor=#999999;" vertex="1" parent="sd6GI_CfqPa9usXOeFd3-138">
          <mxGeometry x="300" y="112" width="210" height="210" as="geometry" />
        </mxCell>
        <mxCell id="sd6GI_CfqPa9usXOeFd3-104" value="&lt;h1 style=&quot;margin-top: 0px;&quot;&gt;&lt;font style=&quot;&quot;&gt;Desenvolvedor Júnior&lt;/font&gt;&lt;/h1&gt;&lt;p style=&quot;&quot;&gt;&lt;font&gt;&lt;span style=&quot;font-size: 14px;&quot;&gt;Me chamo Victor Santos, sou um estudante de Ciência da Computação com grande interesse acerca da área de Inteligência Artificial e seu desenvolvimento. Estou em processo de aprendizagem, buscando engajar tanto em projetos acadêmicos quanto em desafios práticos. Meu objetivo é dominar tecnologias inovadoras e conquistar minha primeira experiência de trabalho.&lt;/span&gt;&lt;/font&gt;&lt;br&gt;&lt;/p&gt;" style="text;html=1;whiteSpace=wrap;overflow=hidden;rounded=0;align=center;fontColor=default;" vertex="1" parent="sd6GI_CfqPa9usXOeFd3-138">
          <mxGeometry y="353.78" width="810" height="120" as="geometry" />
        </mxCell>
        <mxCell id="sd6GI_CfqPa9usXOeFd3-155" value="" style="swimlane;startSize=0;" vertex="1" parent="1">
          <mxGeometry x="2720" y="574" width="1270" height="664.5" as="geometry" />
        </mxCell>
        <mxCell id="sd6GI_CfqPa9usXOeFd3-172" value="" style="strokeWidth=1;shadow=0;dashed=0;align=center;html=1;shape=mxgraph.mockup.containers.browserWindow;rSize=0;strokeColor=#666666;mainText=,;recursiveResize=0;rounded=0;labelBackgroundColor=none;fontFamily=Verdana;fontSize=12;container=0;" vertex="1" parent="sd6GI_CfqPa9usXOeFd3-155">
          <mxGeometry y="-155.5" width="1270" height="820" as="geometry" />
        </mxCell>
        <mxCell id="sd6GI_CfqPa9usXOeFd3-165" value="&lt;font style=&quot;font-size: 16px;&quot; data-font-src=&quot;https://fonts.googleapis.com/css?family=Poppins&quot; face=&quot;Poppins&quot;&gt;Nome Completo&lt;/font&gt;" style="strokeWidth=1;html=1;shadow=0;dashed=0;shape=mxgraph.ios.iTextInput;strokeColor=#444444;buttonText=;fontSize=8;whiteSpace=wrap;align=left;" vertex="1" parent="sd6GI_CfqPa9usXOeFd3-155">
          <mxGeometry x="390" y="229" width="230" height="40" as="geometry" />
        </mxCell>
        <mxCell id="sd6GI_CfqPa9usXOeFd3-141" value="" style="group" vertex="1" connectable="0" parent="1">
          <mxGeometry x="1380" y="880" width="1270" height="820" as="geometry" />
        </mxCell>
        <mxCell id="sd6GI_CfqPa9usXOeFd3-120" value="" style="strokeWidth=1;shadow=0;dashed=0;align=center;html=1;shape=mxgraph.mockup.containers.browserWindow;rSize=0;strokeColor=#666666;mainText=,;recursiveResize=0;rounded=0;labelBackgroundColor=none;fontFamily=Verdana;fontSize=12;container=0;" vertex="1" parent="sd6GI_CfqPa9usXOeFd3-141">
          <mxGeometry width="1270" height="820" as="geometry" />
        </mxCell>
        <mxCell id="sd6GI_CfqPa9usXOeFd3-121" value="Portifólio" style="strokeWidth=1;shadow=0;dashed=0;align=center;html=1;shape=mxgraph.mockup.containers.anchor;fontSize=17;fontColor=#666666;align=left;" vertex="1" parent="sd6GI_CfqPa9usXOeFd3-141">
          <mxGeometry x="60" y="12" width="110" height="26" as="geometry" />
        </mxCell>
        <mxCell id="sd6GI_CfqPa9usXOeFd3-122" value="https://www.default.com" style="strokeWidth=1;shadow=0;dashed=0;align=center;html=1;shape=mxgraph.mockup.containers.anchor;rSize=0;fontSize=17;fontColor=#666666;align=left;" vertex="1" parent="sd6GI_CfqPa9usXOeFd3-141">
          <mxGeometry x="130" y="60" width="250" height="26" as="geometry" />
        </mxCell>
        <mxCell id="sd6GI_CfqPa9usXOeFd3-123" value="" style="rounded=0;whiteSpace=wrap;html=1;opacity=50;" vertex="1" parent="sd6GI_CfqPa9usXOeFd3-141">
          <mxGeometry y="110" width="1270" height="60" as="geometry" />
        </mxCell>
        <mxCell id="sd6GI_CfqPa9usXOeFd3-124" value="Portifólio" style="text;html=1;align=left;verticalAlign=middle;whiteSpace=wrap;rounded=0;fontStyle=1;fontFamily=Poppins;fontSize=23;fontSource=https%3A%2F%2Ffonts.googleapis.com%2Fcss%3Ffamily%3DPoppins;" vertex="1" parent="sd6GI_CfqPa9usXOeFd3-141">
          <mxGeometry x="114" y="125" width="106" height="30" as="geometry" />
        </mxCell>
        <mxCell id="sd6GI_CfqPa9usXOeFd3-125" value="" style="group;fontFamily=Poppins;fontSource=https%3A%2F%2Ffonts.googleapis.com%2Fcss%3Ffamily%3DPoppins;" vertex="1" connectable="0" parent="sd6GI_CfqPa9usXOeFd3-141">
          <mxGeometry x="670" y="110" width="560" height="60" as="geometry" />
        </mxCell>
        <mxCell id="sd6GI_CfqPa9usXOeFd3-126" value="&lt;font color=&quot;#000000&quot;&gt;Home&lt;/font&gt;" style="rounded=0;whiteSpace=wrap;html=1;strokeColor=#000000;fillColor=none;fontStyle=1;fontSize=14;fontColor=#77E319;fontFamily=Poppins;fontSource=https%3A%2F%2Ffonts.googleapis.com%2Fcss%3Ffamily%3DPoppins;" vertex="1" parent="sd6GI_CfqPa9usXOeFd3-125">
          <mxGeometry width="112" height="60" as="geometry" />
        </mxCell>
        <mxCell id="sd6GI_CfqPa9usXOeFd3-127" value="Sobre Mim" style="rounded=0;whiteSpace=wrap;html=1;strokeColor=#000000;fillColor=none;fontStyle=1;fontSize=14;fontFamily=Poppins;fontSource=https%3A%2F%2Ffonts.googleapis.com%2Fcss%3Ffamily%3DPoppins;" vertex="1" parent="sd6GI_CfqPa9usXOeFd3-125">
          <mxGeometry x="112" width="112" height="60" as="geometry" />
        </mxCell>
        <mxCell id="sd6GI_CfqPa9usXOeFd3-128" value="Experiências" style="rounded=0;whiteSpace=wrap;html=1;strokeColor=#000000;fillColor=none;fontStyle=1;fontSize=14;fontFamily=Poppins;fontSource=https%3A%2F%2Ffonts.googleapis.com%2Fcss%3Ffamily%3DPoppins;" vertex="1" parent="sd6GI_CfqPa9usXOeFd3-125">
          <mxGeometry x="224" width="112" height="60" as="geometry" />
        </mxCell>
        <mxCell id="sd6GI_CfqPa9usXOeFd3-129" value="&lt;font color=&quot;#00ff11&quot;&gt;Habilidades&lt;/font&gt;" style="rounded=0;whiteSpace=wrap;html=1;strokeColor=#000000;fillColor=none;fontStyle=1;fontSize=14;fontFamily=Poppins;fontSource=https%3A%2F%2Ffonts.googleapis.com%2Fcss%3Ffamily%3DPoppins;" vertex="1" parent="sd6GI_CfqPa9usXOeFd3-125">
          <mxGeometry x="336" width="112" height="60" as="geometry" />
        </mxCell>
        <mxCell id="sd6GI_CfqPa9usXOeFd3-130" value="Contato" style="rounded=0;whiteSpace=wrap;html=1;strokeColor=#000000;fillColor=none;fontStyle=1;fontSize=14;fontFamily=Poppins;fontSource=https%3A%2F%2Ffonts.googleapis.com%2Fcss%3Ffamily%3DPoppins;" vertex="1" parent="sd6GI_CfqPa9usXOeFd3-125">
          <mxGeometry x="448" width="112" height="60" as="geometry" />
        </mxCell>
        <mxCell id="sd6GI_CfqPa9usXOeFd3-131" value="&lt;font face=&quot;Poppins&quot;&gt;&lt;b&gt;Tecnologias e&lt;font color=&quot;#000000&quot;&gt; Habilidades&lt;/font&gt;&lt;/b&gt;&lt;/font&gt;" style="text;html=1;align=center;verticalAlign=middle;whiteSpace=wrap;rounded=0;fontColor=#00FF11;fontSize=46;" vertex="1" parent="sd6GI_CfqPa9usXOeFd3-141">
          <mxGeometry x="300" y="258" width="650" height="41.45" as="geometry" />
        </mxCell>
        <mxCell id="sd6GI_CfqPa9usXOeFd3-132" value="" style="swimlane;startSize=0;" vertex="1" parent="sd6GI_CfqPa9usXOeFd3-141">
          <mxGeometry y="170" width="1270" height="650" as="geometry" />
        </mxCell>
        <mxCell id="sd6GI_CfqPa9usXOeFd3-134" value="&lt;div&gt;&lt;b&gt;&lt;font style=&quot;font-size: 20px;&quot; color=&quot;#00ff11&quot;&gt;Tecnologias Dominadas&lt;/font&gt;&lt;/b&gt;&lt;/div&gt;&lt;ul style=&quot;font-size: 16px;&quot;&gt;&lt;li&gt;HTML&lt;/li&gt;&lt;li&gt;CSS&lt;/li&gt;&lt;li&gt;PHP&lt;/li&gt;&lt;li&gt;JavaScript&lt;/li&gt;&lt;/ul&gt;&lt;div&gt;&lt;b&gt;&lt;font style=&quot;font-size: 20px;&quot; color=&quot;#00ff11&quot;&gt;Habilidades Úteis&lt;/font&gt;&lt;/b&gt;&lt;/div&gt;&lt;div style=&quot;font-size: 16px;&quot;&gt;&lt;ul&gt;&lt;li&gt;Inglês Intermediário&lt;/li&gt;&lt;li&gt;Espanhol Básico&lt;/li&gt;&lt;li&gt;Noções de Hardware&lt;/li&gt;&lt;/ul&gt;&lt;/div&gt;" style="text;strokeColor=none;fillColor=none;html=1;whiteSpace=wrap;verticalAlign=middle;overflow=hidden;" vertex="1" parent="sd6GI_CfqPa9usXOeFd3-132">
          <mxGeometry x="305" y="204.5" width="660" height="241" as="geometry" />
        </mxCell>
        <mxCell id="sd6GI_CfqPa9usXOeFd3-173" value="" style="verticalLabelPosition=bottom;shadow=0;dashed=0;align=center;html=1;verticalAlign=top;strokeWidth=1;shape=mxgraph.mockup.graphics.simpleIcon;strokeColor=#999999;" vertex="1" parent="sd6GI_CfqPa9usXOeFd3-132">
          <mxGeometry x="640" y="175" width="300" height="300" as="geometry" />
        </mxCell>
        <mxCell id="sd6GI_CfqPa9usXOeFd3-144" value="Portifólio" style="strokeWidth=1;shadow=0;dashed=0;align=center;html=1;shape=mxgraph.mockup.containers.anchor;fontSize=17;fontColor=#666666;align=left;" vertex="1" parent="1">
          <mxGeometry x="2780" y="432" width="110" height="26" as="geometry" />
        </mxCell>
        <mxCell id="sd6GI_CfqPa9usXOeFd3-145" value="https://www.default.com" style="strokeWidth=1;shadow=0;dashed=0;align=center;html=1;shape=mxgraph.mockup.containers.anchor;rSize=0;fontSize=17;fontColor=#666666;align=left;" vertex="1" parent="1">
          <mxGeometry x="2850" y="480" width="250" height="26" as="geometry" />
        </mxCell>
        <mxCell id="sd6GI_CfqPa9usXOeFd3-146" value="" style="rounded=0;whiteSpace=wrap;html=1;opacity=50;" vertex="1" parent="1">
          <mxGeometry x="2720" y="530" width="1270" height="60" as="geometry" />
        </mxCell>
        <mxCell id="sd6GI_CfqPa9usXOeFd3-147" value="Portifólio" style="text;html=1;align=left;verticalAlign=middle;whiteSpace=wrap;rounded=0;fontStyle=1;fontFamily=Poppins;fontSize=23;fontSource=https%3A%2F%2Ffonts.googleapis.com%2Fcss%3Ffamily%3DPoppins;" vertex="1" parent="1">
          <mxGeometry x="2834" y="545" width="106" height="30" as="geometry" />
        </mxCell>
        <mxCell id="sd6GI_CfqPa9usXOeFd3-148" value="" style="group;fontFamily=Poppins;fontSource=https%3A%2F%2Ffonts.googleapis.com%2Fcss%3Ffamily%3DPoppins;" vertex="1" connectable="0" parent="1">
          <mxGeometry x="3390" y="530" width="560" height="60" as="geometry" />
        </mxCell>
        <mxCell id="sd6GI_CfqPa9usXOeFd3-149" value="&lt;font color=&quot;#000000&quot;&gt;Home&lt;/font&gt;" style="rounded=0;whiteSpace=wrap;html=1;strokeColor=#000000;fillColor=none;fontStyle=1;fontSize=14;fontColor=#77E319;fontFamily=Poppins;fontSource=https%3A%2F%2Ffonts.googleapis.com%2Fcss%3Ffamily%3DPoppins;" vertex="1" parent="sd6GI_CfqPa9usXOeFd3-148">
          <mxGeometry width="112" height="60" as="geometry" />
        </mxCell>
        <mxCell id="sd6GI_CfqPa9usXOeFd3-150" value="Sobre Mim" style="rounded=0;whiteSpace=wrap;html=1;strokeColor=#000000;fillColor=none;fontStyle=1;fontSize=14;fontFamily=Poppins;fontSource=https%3A%2F%2Ffonts.googleapis.com%2Fcss%3Ffamily%3DPoppins;" vertex="1" parent="sd6GI_CfqPa9usXOeFd3-148">
          <mxGeometry x="112" width="112" height="60" as="geometry" />
        </mxCell>
        <mxCell id="sd6GI_CfqPa9usXOeFd3-151" value="Experiências" style="rounded=0;whiteSpace=wrap;html=1;strokeColor=#000000;fillColor=none;fontStyle=1;fontSize=14;fontFamily=Poppins;fontSource=https%3A%2F%2Ffonts.googleapis.com%2Fcss%3Ffamily%3DPoppins;" vertex="1" parent="sd6GI_CfqPa9usXOeFd3-148">
          <mxGeometry x="224" width="112" height="60" as="geometry" />
        </mxCell>
        <mxCell id="sd6GI_CfqPa9usXOeFd3-152" value="Habilidades" style="rounded=0;whiteSpace=wrap;html=1;strokeColor=#000000;fillColor=none;fontStyle=1;fontSize=14;fontFamily=Poppins;fontSource=https%3A%2F%2Ffonts.googleapis.com%2Fcss%3Ffamily%3DPoppins;" vertex="1" parent="sd6GI_CfqPa9usXOeFd3-148">
          <mxGeometry x="336" width="112" height="60" as="geometry" />
        </mxCell>
        <mxCell id="sd6GI_CfqPa9usXOeFd3-153" value="&lt;font color=&quot;#00ff11&quot;&gt;Contato&lt;/font&gt;" style="rounded=0;whiteSpace=wrap;html=1;strokeColor=#000000;fillColor=none;fontStyle=1;fontSize=14;fontFamily=Poppins;fontSource=https%3A%2F%2Ffonts.googleapis.com%2Fcss%3Ffamily%3DPoppins;" vertex="1" parent="sd6GI_CfqPa9usXOeFd3-148">
          <mxGeometry x="448" width="112" height="60" as="geometry" />
        </mxCell>
        <mxCell id="sd6GI_CfqPa9usXOeFd3-154" value="&lt;font face=&quot;Poppins&quot;&gt;&lt;b&gt;Fale &lt;font color=&quot;#000000&quot;&gt;Comigo&lt;/font&gt;&lt;/b&gt;&lt;/font&gt;" style="text;html=1;align=center;verticalAlign=middle;whiteSpace=wrap;rounded=0;fontColor=#00FF11;fontSize=46;" vertex="1" parent="1">
          <mxGeometry x="3020" y="678" width="650" height="41.45" as="geometry" />
        </mxCell>
        <mxCell id="sd6GI_CfqPa9usXOeFd3-166" value="&lt;font face=&quot;Poppins&quot;&gt;&lt;span style=&quot;font-size: 16px;&quot;&gt;E-Mail&lt;/span&gt;&lt;/font&gt;" style="strokeWidth=1;html=1;shadow=0;dashed=0;shape=mxgraph.ios.iTextInput;strokeColor=#444444;buttonText=;fontSize=8;whiteSpace=wrap;align=left;" vertex="1" parent="1">
          <mxGeometry x="3350" y="803" width="230" height="40" as="geometry" />
        </mxCell>
        <mxCell id="sd6GI_CfqPa9usXOeFd3-168" value="&lt;font style=&quot;font-size: 16px;&quot; data-font-src=&quot;https://fonts.googleapis.com/css?family=Poppins&quot; face=&quot;Poppins&quot;&gt;Assunto&lt;/font&gt;" style="strokeWidth=1;html=1;shadow=0;dashed=0;shape=mxgraph.ios.iTextInput;strokeColor=#444444;buttonText=;fontSize=8;whiteSpace=wrap;align=left;" vertex="1" parent="1">
          <mxGeometry x="3110" y="853" width="470" height="40" as="geometry" />
        </mxCell>
        <mxCell id="sd6GI_CfqPa9usXOeFd3-169" value="&lt;font style=&quot;font-size: 16px;&quot; data-font-src=&quot;https://fonts.googleapis.com/css?family=Poppins&quot; face=&quot;Poppins&quot;&gt;Mensagem&lt;/font&gt;" style="strokeWidth=1;html=1;shadow=0;dashed=0;shape=mxgraph.ios.iTextInput;strokeColor=#444444;buttonText=;fontSize=8;whiteSpace=wrap;align=left;verticalAlign=top;" vertex="1" parent="1">
          <mxGeometry x="3110.385" y="903" width="469.23" height="200" as="geometry" />
        </mxCell>
        <mxCell id="sd6GI_CfqPa9usXOeFd3-170" value="Enviar" style="rounded=1;whiteSpace=wrap;html=1;fontFamily=Poppins;fontSource=https%3A%2F%2Ffonts.googleapis.com%2Fcss%3Ffamily%3DPoppins;fontStyle=1;fontSize=17;fontColor=#000000;fillColor=#00FF11;strokeColor=none;" vertex="1" parent="1">
          <mxGeometry x="3274.615" y="1130" width="140" height="50" as="geometry" />
        </mxCell>
      </root>
    </mxGraphModel>
  </diagram>
</mxfile>
